<svg xmlns="http://www.w3.org/2000/svg" xmlns:xlink="http://www.w3.org/1999/xlink" width="900" zoomAndPan="magnify" viewBox="0 0 675 225" height="300" preserveAspectRatio="xMidYMid meet" version="1.0"><defs><g/><clipPath id="4bdebc92d5"><path d="M 0 88 L 650.160156 88 L 650.160156 217 L 0 217 Z M 0 88 " clip-rule="nonzero"/></clipPath><clipPath id="bb51d8171e"><rect x="0" width="651" y="0" height="129"/></clipPath><clipPath id="609ca18196"><rect x="0" width="651" y="0" height="217"/></clipPath></defs><g transform="matrix(1, 0, 0, 1, 12, 8)"><g clip-path="url(#609ca18196)"><g clip-path="url(#4bdebc92d5)"><g transform="matrix(1, 0, 0, 1, 0, 88)"><g clip-path="url(#bb51d8171e)"><g fill="#373d40" fill-opacity="1"><g transform="translate(0.859925, 106.160835)"><g><path d="M 6.28125 0 L 6.28125 -58.828125 L 57.578125 -58.828125 C 64.273438 -58.828125 69.164062 -57.171875 72.25 -53.859375 C 75.332031 -50.546875 76.875 -46.1875 76.875 -40.78125 L 76.875 0 L 60.3125 0 L 60.3125 -38.84375 C 60.3125 -43.40625 58.03125 -45.6875 53.46875 -45.6875 L 22.84375 -45.6875 L 22.84375 0 Z M 6.28125 0 "/></g></g></g><g fill="#373d40" fill-opacity="1"><g transform="translate(83.101636, 106.160835)"><g><path d="M 36.4375 0.578125 C 26.238281 0.578125 18.28125 -1.953125 12.5625 -7.015625 C 6.851562 -12.085938 4 -19.535156 4 -29.359375 C 4 -39.253906 6.851562 -46.734375 12.5625 -51.796875 C 18.28125 -56.867188 26.238281 -59.40625 36.4375 -59.40625 L 65 -59.40625 C 71.695312 -59.40625 76.816406 -57.820312 80.359375 -54.65625 C 83.898438 -51.5 85.671875 -46.988281 85.671875 -41.125 C 85.671875 -29.164062 78.78125 -23.1875 65 -23.1875 L 21.8125 -23.1875 C 23.414062 -16.101562 28.289062 -12.5625 36.4375 -12.5625 L 82.703125 -12.5625 L 82.703125 0.578125 Z M 36.4375 -46.265625 C 28.59375 -46.265625 23.757812 -42.953125 21.9375 -36.328125 L 64.203125 -36.328125 C 65.722656 -36.328125 66.921875 -36.78125 67.796875 -37.6875 C 68.671875 -38.601562 69.109375 -39.863281 69.109375 -41.46875 C 69.109375 -44.664062 67.472656 -46.265625 64.203125 -46.265625 Z M 36.4375 -46.265625 "/></g></g></g><g fill="#e95704" fill-opacity="1"><g transform="translate(169.011261, 106.160835)"><g><path d="M 1.140625 0 L 23.296875 -29.359375 L 1.140625 -58.71875 L 20.5625 -58.71875 L 37.578125 -35.984375 L 45.921875 -35.984375 L 63.0625 -58.71875 L 82.359375 -58.71875 L 60.3125 -29.359375 L 82.359375 0 L 63.0625 0 L 45.8125 -22.84375 L 37.578125 -22.84375 L 20.5625 0 Z M 1.140625 0 "/></g></g></g><g fill="#373d40" fill-opacity="1"><g transform="translate(252.178656, 106.160835)"><g><path d="M 4.34375 0.578125 L 4.34375 -12.5625 L 60.3125 -12.5625 C 63.507812 -12.5625 65.109375 -14.351562 65.109375 -17.9375 C 65.109375 -21.4375 63.507812 -23.1875 60.3125 -23.1875 L 24.109375 -23.1875 C 17.328125 -23.1875 12.179688 -24.726562 8.671875 -27.8125 C 5.171875 -30.894531 3.421875 -35.332031 3.421875 -41.125 C 3.421875 -46.988281 5.191406 -51.5 8.734375 -54.65625 C 12.273438 -57.820312 17.398438 -59.40625 24.109375 -59.40625 L 76.1875 -59.40625 L 76.1875 -46.265625 L 24.90625 -46.265625 C 21.625 -46.265625 19.984375 -44.664062 19.984375 -41.46875 C 19.984375 -39.863281 20.441406 -38.601562 21.359375 -37.6875 C 22.273438 -36.78125 23.457031 -36.328125 24.90625 -36.328125 L 63.28125 -36.328125 C 69.226562 -36.328125 73.78125 -34.785156 76.9375 -31.703125 C 80.09375 -28.617188 81.671875 -24.144531 81.671875 -18.28125 C 81.671875 -12.34375 80.070312 -7.710938 76.875 -4.390625 C 73.675781 -1.078125 69.144531 0.578125 63.28125 0.578125 Z M 4.34375 0.578125 "/></g></g></g><g fill="#373d40" fill-opacity="1"><g transform="translate(336.933311, 106.160835)"><g><path d="M 25.015625 0 C 18.316406 0 13.425781 -1.671875 10.34375 -5.015625 C 7.257812 -8.367188 5.71875 -12.710938 5.71875 -18.046875 L 5.71875 -58.828125 L 22.28125 -58.828125 L 22.28125 -19.984375 C 22.28125 -15.421875 24.5625 -13.140625 29.125 -13.140625 L 52.890625 -13.140625 C 57.460938 -13.140625 59.75 -15.421875 59.75 -19.984375 L 59.75 -58.828125 L 76.3125 -58.828125 L 76.3125 -18.046875 C 76.3125 -12.710938 74.769531 -8.367188 71.6875 -5.015625 C 68.601562 -1.671875 63.707031 0 57 0 Z M 25.015625 0 "/></g></g></g><g fill="#373d40" fill-opacity="1"><g transform="translate(418.6039, 106.160835)"><g><path d="M 6.28125 0 L 6.28125 -58.828125 L 57.578125 -58.828125 C 64.273438 -58.828125 69.164062 -57.171875 72.25 -53.859375 C 75.332031 -50.546875 76.875 -46.1875 76.875 -40.78125 L 76.875 0 L 60.3125 0 L 60.3125 -38.84375 C 60.3125 -43.40625 58.03125 -45.6875 53.46875 -45.6875 L 22.84375 -45.6875 L 22.84375 0 Z M 6.28125 0 "/></g></g></g><g fill="#373d40" fill-opacity="1"><g transform="translate(500.845611, 106.160835)"><g><path d="M 6.859375 0 L 6.859375 -16.328125 L 25.125 -16.328125 L 25.125 0 Z M 6.859375 0 "/></g></g></g><g fill="#373d40" fill-opacity="1"><g transform="translate(532.714268, 106.160835)"><g><path d="M 21.9375 0 C 15.769531 0 11.046875 -1.5625 7.765625 -4.6875 C 4.492188 -7.8125 2.859375 -12.265625 2.859375 -18.046875 C 2.859375 -23.753906 4.492188 -28.171875 7.765625 -31.296875 C 11.046875 -34.421875 15.769531 -35.984375 21.9375 -35.984375 L 65.796875 -35.984375 L 65.796875 -38.71875 C 65.796875 -43.363281 63.507812 -45.6875 58.9375 -45.6875 L 10.515625 -45.6875 L 10.515625 -58.828125 L 63.28125 -58.828125 C 70.21875 -58.828125 75.128906 -57.242188 78.015625 -54.078125 C 80.910156 -50.921875 82.359375 -46.488281 82.359375 -40.78125 L 82.359375 0 Z M 24.90625 -13.140625 L 65.796875 -13.140625 L 65.796875 -22.84375 L 24.90625 -22.84375 C 23.457031 -22.84375 22.332031 -22.40625 21.53125 -21.53125 C 20.726562 -20.65625 20.328125 -19.492188 20.328125 -18.046875 C 20.328125 -16.597656 20.726562 -15.414062 21.53125 -14.5 C 22.332031 -13.59375 23.457031 -13.140625 24.90625 -13.140625 Z M 24.90625 -13.140625 "/></g></g></g><g fill="#373d40" fill-opacity="1"><g transform="translate(621.00989, 106.160835)"><g><path d="M 6.28125 0 L 6.28125 -58.828125 L 22.84375 -58.828125 L 22.84375 0 Z M 6.171875 -68.546875 L 6.171875 -81.453125 L 22.953125 -81.453125 L 22.953125 -68.546875 Z M 6.171875 -68.546875 "/></g></g></g></g></g></g><path fill="#f6b707" d="M 149.757812 63.035156 C 149.757812 29.566406 177.023438 2.390625 210.609375 2.390625 C 244.195312 2.390625 271.464844 29.566406 271.464844 63.035156 C 271.464844 68.75 270.667969 74.285156 269.179688 79.53125 C 269.179688 79.53125 264.699219 82.0625 259.554688 82.363281 C 254.410156 82.664062 249.910156 82.046875 246.761719 81.164062 C 244.023438 80.398438 238.945312 78.300781 236.386719 77.039062 C 232.015625 74.878906 227.925781 72.042969 220.703125 67.847656 C 211.644531 62.585938 200.78125 57.570312 194.003906 56 C 185.21875 53.960938 175.316406 55.003906 171.351562 56.140625 C 163.773438 58.3125 154.890625 61.496094 150.375 71.691406 C 149.21875 74.304688 149.757812 65.972656 149.757812 63.035156 Z M 149.757812 63.035156 " fill-opacity="1" fill-rule="evenodd"/><path fill="#f4920b" d="M 159.40625 79.796875 C 154.109375 82.546875 153.378906 83.742188 153.476562 82.585938 C 154.894531 65.339844 178.191406 53.710938 204.203125 65.121094 C 222.765625 73.265625 240.992188 92.984375 259.988281 87.882812 C 265.40625 86.425781 267.550781 83.039062 267.535156 84.285156 C 267.53125 84.449219 265.640625 88.238281 263.59375 90.246094 C 248.449219 105.082031 222.277344 88.300781 214.617188 84.390625 C 210.164062 82.117188 184.839844 67.332031 159.40625 79.796875 Z M 159.40625 79.796875 " fill-opacity="1" fill-rule="evenodd"/><path fill="#f06c07" d="M 159.613281 96.261719 C 157.683594 93.554688 154.734375 88.046875 154.894531 87.386719 C 155.042969 86.753906 161.15625 83.632812 162.925781 82.972656 C 189.894531 72.925781 209.859375 87.339844 225.648438 94.679688 C 248.503906 105.300781 258.527344 98.089844 259.457031 98.054688 C 260.242188 98.027344 256.125 103.125 251.785156 105.214844 C 235.953125 112.839844 219.75 102.234375 205.496094 96.898438 C 179.496094 87.167969 165.605469 99 162.925781 100.179688 C 162.53125 100.351562 162.34375 100.097656 159.613281 96.261719 Z M 159.613281 96.261719 " fill-opacity="1" fill-rule="evenodd"/><path fill="#e95704" d="M 222.019531 121.929688 C 198.003906 127.167969 179.378906 114.511719 176.210938 112.472656 C 173.410156 110.667969 164.738281 104 165.699219 103.222656 C 166.699219 102.414062 172.566406 99.300781 178.585938 98.335938 C 204.574219 94.164062 220.527344 115.523438 244.117188 111.464844 C 244.230469 111.445312 247.390625 110.484375 246.074219 111.53125 C 245.714844 111.820312 245.683594 111.765625 241.21875 114.585938 C 233.417969 119.511719 223.628906 121.589844 222.019531 121.929688 Z M 222.019531 121.929688 " fill-opacity="1" fill-rule="evenodd"/></g></g></svg>