<?xml version="1.0" encoding="UTF-8" standalone="no"?>
<!DOCTYPE svg PUBLIC "-//W3C//DTD SVG 1.1//EN" "http://www.w3.org/Graphics/SVG/1.1/DTD/svg11.dtd">
<svg width="100%" height="100%" viewBox="0 0 2844 407" version="1.1" xmlns="http://www.w3.org/2000/svg" xmlns:xlink="http://www.w3.org/1999/xlink" xml:space="preserve" xmlns:serif="http://www.serif.com/" style="fill-rule:evenodd;clip-rule:evenodd;stroke-linecap:round;stroke-linejoin:round;stroke-miterlimit:1.5;">
    <g transform="matrix(0.703668,0,0,0.703668,305.322147,-763.734034)">
        <g transform="matrix(459.331058,0,0,459.331058,698.413336,1622.00044)">
        </g>
        <text x="468.299px" y="1622px" style="font-family:'Aptos-SemiBold', 'Aptos', sans-serif;font-weight:600;font-size:459.331px;">s</text>
    </g>
    <g transform="matrix(0.703668,0,0,0.703668,-316.342411,-760.893264)">
        <g transform="matrix(459.331058,0,0,459.331058,624.175748,1622.00044)">
        </g>
        <text x="468.299px" y="1622px" style="font-family:'Aptos-SemiBold', 'Aptos', sans-serif;font-weight:600;font-size:459.331px;">t</text>
    </g>
    <g transform="matrix(0.703668,0,0,0.703668,932.817662,-763.734034)">
        <g transform="matrix(459.331058,0,0,459.331058,698.413336,1622.00044)">
        </g>
        <text x="468.299px" y="1622px" style="font-family:'Aptos-SemiBold', 'Aptos', sans-serif;font-weight:600;font-size:459.331px;">s</text>
    </g>
    <g transform="matrix(0.703668,0,0,0.703668,-166.706754,-760.893264)">
        <g transform="matrix(459.331058,0,0,459.331058,808.760446,1622.00044)">
        </g>
        <text x="468.299px" y="1622px" style="font-family:'Aptos-SemiBold', 'Aptos', sans-serif;font-weight:600;font-size:459.331px;">w</text>
    </g>
    <g transform="matrix(0.703668,0,0,0.703668,502.192159,-763.102752)">
        <g transform="matrix(459.331058,0,0,459.331058,730.037203,1622.00044)">
        </g>
        <text x="468.299px" y="1622px" style="font-family:'Aptos-SemiBold', 'Aptos', sans-serif;font-weight:600;font-size:459.331px;">u</text>
    </g>
    <g transform="matrix(0.703668,0,0,0.703668,714.296443,-760.893264)">
        <g transform="matrix(459.331058,0,0,459.331058,727.794376,1622.00044)">
        </g>
        <text x="468.299px" y="1622px" style="font-family:'Aptos-SemiBold', 'Aptos', sans-serif;font-weight:600;font-size:459.331px;">n</text>
    </g>
    <g transform="matrix(0.46138,0,0,0.46138,50.199084,35.667548)">
        <circle cx="1014.46" cy="580.544" r="166.755" style="fill:url(#_Radial1);stroke:rgb(255,102,0);stroke-width:27.09px;"/>
    </g>
    <g transform="matrix(0.504759,0,0,0.504759,-229.530794,-188.457977)">
        <circle cx="1014.46" cy="580.544" r="166.755" style="fill:url(#_Radial2);stroke:rgb(204,153,0);stroke-width:24.76px;"/>
    </g>
    <g transform="matrix(0.838198,0,0,0.838198,-339.107419,-898.922707)">
        <g transform="matrix(385.747978,0,0,385.747978,3794.686457,1525.168956)">
        </g>
        <text x="2182.569px" y="1525.169px" style="font-family:'Aptos-Light', 'Aptos', sans-serif;font-weight:300;font-size:385.748px;fill:rgb(196,82,19);">HORIZ<tspan x="3243.941px 3525.529px " y="1525.169px 1525.169px ">ON</tspan></text>
    </g>
    <defs>
        <radialGradient id="_Radial1" cx="0" cy="0" r="1" gradientUnits="userSpaceOnUse" gradientTransform="matrix(0,-328.531471,328.531471,0,1014.459778,747.299571)"><stop offset="0" style="stop-color:white;stop-opacity:1"/><stop offset="0.32" style="stop-color:rgb(255,137,57);stop-opacity:1"/><stop offset="0.69" style="stop-color:rgb(255,104,3);stop-opacity:1"/><stop offset="1" style="stop-color:rgb(255,102,0);stop-opacity:1"/></radialGradient>
        <radialGradient id="_Radial2" cx="0" cy="0" r="1" gradientUnits="userSpaceOnUse" gradientTransform="matrix(0,-333.51053,333.51053,0,1014.459778,747.299571)"><stop offset="0" style="stop-color:white;stop-opacity:1"/><stop offset="0.51" style="stop-color:rgb(217,179,65);stop-opacity:1"/><stop offset="1" style="stop-color:rgb(204,153,0);stop-opacity:1"/></radialGradient>
    </defs>
</svg>
