<svg xmlns="http://www.w3.org/2000/svg" xmlns:xlink="http://www.w3.org/1999/xlink" width="1080" zoomAndPan="magnify" viewBox="0 0 810 299.999988" height="400" preserveAspectRatio="xMidYMid meet" version="1.0"><defs><g/><clipPath id="8e06006932"><rect x="0" width="766" y="0" height="152"/></clipPath></defs><g transform="matrix(1, 0, 0, 1, 13, 74)"><g clip-path="url(#8e06006932)"><path fill="#f6b707" d="M 21.851562 76.34375 C 21.851562 36.207031 54.472656 3.625 94.648438 3.625 C 134.824219 3.625 167.441406 36.207031 167.441406 76.34375 C 167.441406 83.199219 166.492188 89.835938 164.710938 96.125 C 164.710938 96.125 159.351562 99.164062 153.195312 99.523438 C 147.042969 99.882812 141.65625 99.144531 137.894531 98.085938 C 134.617188 97.164062 128.542969 94.648438 125.484375 93.136719 C 120.25 90.546875 115.363281 87.148438 106.722656 82.117188 C 95.882812 75.804688 82.890625 69.792969 74.78125 67.90625 C 64.269531 65.464844 52.429688 66.714844 47.683594 68.074219 C 38.621094 70.679688 27.992188 74.5 22.589844 86.722656 C 21.207031 89.859375 21.851562 79.867188 21.851562 76.34375 Z M 21.851562 76.34375 " fill-opacity="1" fill-rule="evenodd"/><path fill="#f4920b" d="M 33.394531 96.445312 C 27.058594 99.742188 26.183594 101.175781 26.300781 99.785156 C 28 79.105469 55.867188 65.164062 86.980469 78.847656 C 109.1875 88.613281 130.992188 112.257812 153.714844 106.140625 C 160.195312 104.394531 162.761719 100.335938 162.742188 101.824219 C 162.738281 102.023438 160.480469 106.566406 158.027344 108.972656 C 139.910156 126.765625 108.605469 106.644531 99.441406 101.953125 C 94.113281 99.226562 63.816406 81.5 33.394531 96.445312 Z M 33.394531 96.445312 " fill-opacity="1" fill-rule="evenodd"/><path fill="#f06c07" d="M 33.640625 116.191406 C 31.332031 112.941406 27.804688 106.335938 27.996094 105.542969 C 28.175781 104.789062 35.488281 101.042969 37.605469 100.253906 C 69.867188 88.207031 93.746094 105.492188 112.636719 114.292969 C 139.976562 127.027344 151.964844 118.382812 153.082031 118.339844 C 154.019531 118.304688 149.097656 124.417969 143.90625 126.921875 C 124.960938 136.066406 105.578125 123.347656 88.527344 116.953125 C 57.425781 105.285156 40.808594 119.46875 37.605469 120.886719 C 37.132812 121.09375 36.90625 120.789062 33.640625 116.191406 Z M 33.640625 116.191406 " fill-opacity="1" fill-rule="evenodd"/><path fill="#e95704" d="M 108.296875 146.96875 C 79.566406 153.25 57.285156 138.074219 53.496094 135.628906 C 50.148438 133.464844 39.773438 125.46875 40.921875 124.539062 C 42.117188 123.566406 49.136719 119.832031 56.339844 118.675781 C 87.429688 113.671875 106.507812 139.285156 134.730469 134.421875 C 134.863281 134.398438 138.644531 133.242188 137.070312 134.5 C 136.640625 134.84375 136.605469 134.78125 131.261719 138.160156 C 121.929688 144.066406 110.21875 146.558594 108.296875 146.96875 Z M 108.296875 146.96875 " fill-opacity="1" fill-rule="evenodd"/><g fill="#373d40" fill-opacity="1"><g transform="translate(177.281481, 109.768499)"><g><path d="M 5.6875 0 L 5.6875 -53.25 L 52.109375 -53.25 C 58.171875 -53.25 62.597656 -51.75 65.390625 -48.75 C 68.179688 -45.75 69.578125 -41.800781 69.578125 -36.90625 L 69.578125 0 L 54.59375 0 L 54.59375 -35.15625 C 54.59375 -39.289062 52.523438 -41.359375 48.390625 -41.359375 L 20.671875 -41.359375 L 20.671875 0 Z M 5.6875 0 "/></g></g></g><g fill="#373d40" fill-opacity="1"><g transform="translate(251.723309, 109.768499)"><g><path d="M 32.984375 0.515625 C 23.742188 0.515625 16.539062 -1.773438 11.375 -6.359375 C 6.207031 -10.941406 3.625 -17.679688 3.625 -26.578125 C 3.625 -35.535156 6.207031 -42.304688 11.375 -46.890625 C 16.539062 -51.472656 23.742188 -53.765625 32.984375 -53.765625 L 58.828125 -53.765625 C 64.890625 -53.765625 69.523438 -52.332031 72.734375 -49.46875 C 75.941406 -46.613281 77.546875 -42.53125 77.546875 -37.21875 C 77.546875 -26.394531 71.304688 -20.984375 58.828125 -20.984375 L 19.75 -20.984375 C 21.195312 -14.578125 25.609375 -11.375 32.984375 -11.375 L 74.859375 -11.375 L 74.859375 0.515625 Z M 32.984375 -41.875 C 25.878906 -41.875 21.5 -38.875 19.84375 -32.875 L 58.109375 -32.875 C 59.484375 -32.875 60.566406 -33.285156 61.359375 -34.109375 C 62.148438 -34.941406 62.546875 -36.082031 62.546875 -37.53125 C 62.546875 -40.425781 61.066406 -41.875 58.109375 -41.875 Z M 32.984375 -41.875 "/></g></g></g><g fill="#e95704" fill-opacity="1"><g transform="translate(329.485185, 109.768499)"><g><path d="M 1.03125 0 L 21.09375 -26.578125 L 1.03125 -53.140625 L 18.609375 -53.140625 L 34.015625 -32.5625 L 41.5625 -32.5625 L 57.078125 -53.140625 L 74.546875 -53.140625 L 54.59375 -26.578125 L 74.546875 0 L 57.078125 0 L 41.453125 -20.671875 L 34.015625 -20.671875 L 18.609375 0 Z M 1.03125 0 "/></g></g></g><g fill="#373d40" fill-opacity="1"><g transform="translate(404.764906, 109.768499)"><g><path d="M 3.921875 0.515625 L 3.921875 -11.375 L 54.59375 -11.375 C 57.488281 -11.375 58.9375 -12.992188 58.9375 -16.234375 C 58.9375 -19.398438 57.488281 -20.984375 54.59375 -20.984375 L 21.8125 -20.984375 C 15.675781 -20.984375 11.023438 -22.378906 7.859375 -25.171875 C 4.691406 -27.960938 3.109375 -31.976562 3.109375 -37.21875 C 3.109375 -42.53125 4.707031 -46.613281 7.90625 -49.46875 C 11.113281 -52.332031 15.75 -53.765625 21.8125 -53.765625 L 68.96875 -53.765625 L 68.96875 -41.875 L 22.546875 -41.875 C 19.578125 -41.875 18.09375 -40.425781 18.09375 -37.53125 C 18.09375 -36.082031 18.503906 -34.941406 19.328125 -34.109375 C 20.160156 -33.285156 21.234375 -32.875 22.546875 -32.875 L 57.28125 -32.875 C 62.65625 -32.875 66.769531 -31.476562 69.625 -28.6875 C 72.488281 -25.894531 73.921875 -21.847656 73.921875 -16.546875 C 73.921875 -11.171875 72.472656 -6.984375 69.578125 -3.984375 C 66.679688 -0.984375 62.582031 0.515625 57.28125 0.515625 Z M 3.921875 0.515625 "/></g></g></g><g fill="#373d40" fill-opacity="1"><g transform="translate(481.481349, 109.768499)"><g><path d="M 22.640625 0 C 16.578125 0 12.148438 -1.515625 9.359375 -4.546875 C 6.566406 -7.578125 5.171875 -11.503906 5.171875 -16.328125 L 5.171875 -53.25 L 20.15625 -53.25 L 20.15625 -18.09375 C 20.15625 -13.957031 22.222656 -11.890625 26.359375 -11.890625 L 47.875 -11.890625 C 52.007812 -11.890625 54.078125 -13.957031 54.078125 -18.09375 L 54.078125 -53.25 L 69.0625 -53.25 L 69.0625 -16.328125 C 69.0625 -11.503906 67.664062 -7.578125 64.875 -4.546875 C 62.082031 -1.515625 57.65625 0 51.59375 0 Z M 22.640625 0 "/></g></g></g><g fill="#373d40" fill-opacity="1"><g transform="translate(555.406222, 109.768499)"><g><path d="M 5.6875 0 L 5.6875 -53.25 L 52.109375 -53.25 C 58.171875 -53.25 62.597656 -51.75 65.390625 -48.75 C 68.179688 -45.75 69.578125 -41.800781 69.578125 -36.90625 L 69.578125 0 L 54.59375 0 L 54.59375 -35.15625 C 54.59375 -39.289062 52.523438 -41.359375 48.390625 -41.359375 L 20.671875 -41.359375 L 20.671875 0 Z M 5.6875 0 "/></g></g></g><g fill="#373d40" fill-opacity="1"><g transform="translate(629.848051, 109.768499)"><g><path d="M 6.203125 0 L 6.203125 -14.78125 L 22.75 -14.78125 L 22.75 0 Z M 6.203125 0 "/></g></g></g><g fill="#373d40" fill-opacity="1"><g transform="translate(658.694255, 109.768499)"><g><path d="M 19.84375 0 C 14.257812 0 9.984375 -1.410156 7.015625 -4.234375 C 4.054688 -7.066406 2.578125 -11.097656 2.578125 -16.328125 C 2.578125 -21.503906 4.054688 -25.503906 7.015625 -28.328125 C 9.984375 -31.148438 14.257812 -32.5625 19.84375 -32.5625 L 59.546875 -32.5625 L 59.546875 -35.046875 C 59.546875 -39.253906 57.476562 -41.359375 53.34375 -41.359375 L 9.515625 -41.359375 L 9.515625 -53.25 L 57.28125 -53.25 C 63.550781 -53.25 67.992188 -51.816406 70.609375 -48.953125 C 73.234375 -46.097656 74.546875 -42.082031 74.546875 -36.90625 L 74.546875 0 Z M 22.546875 -11.890625 L 59.546875 -11.890625 L 59.546875 -20.671875 L 22.546875 -20.671875 C 21.234375 -20.671875 20.210938 -20.273438 19.484375 -19.484375 C 18.765625 -18.691406 18.40625 -17.640625 18.40625 -16.328125 C 18.40625 -15.023438 18.765625 -13.957031 19.484375 -13.125 C 20.210938 -12.300781 21.234375 -11.890625 22.546875 -11.890625 Z M 22.546875 -11.890625 "/></g></g></g><g fill="#373d40" fill-opacity="1"><g transform="translate(738.615836, 109.768499)"><g><path d="M 5.6875 0 L 5.6875 -53.25 L 20.671875 -53.25 L 20.671875 0 Z M 5.578125 -62.03125 L 5.578125 -73.71875 L 20.78125 -73.71875 L 20.78125 -62.03125 Z M 5.578125 -62.03125 "/></g></g></g></g></g></svg>