<svg xmlns="http://www.w3.org/2000/svg" xmlns:xlink="http://www.w3.org/1999/xlink" width="950" zoomAndPan="magnify" viewBox="0 0 712.5 149.999998" height="200" preserveAspectRatio="xMidYMid meet" version="1.0"><defs><g/><clipPath id="807279054f"><path d="M 120 0.6875 L 709 0.6875 L 709 126 L 120 126 Z M 120 0.6875 " clip-rule="nonzero"/></clipPath><clipPath id="8ec6ae138d"><rect x="0" width="589" y="0" height="126"/></clipPath><clipPath id="8a9d8f5547"><rect x="0" width="709" y="0" height="128"/></clipPath></defs><g transform="matrix(1, 0, 0, 1, 3, 8)"><g clip-path="url(#8a9d8f5547)"><path fill="#f6b707" d="M 1.734375 70.230469 C 1.734375 39.851562 26.484375 15.1875 56.96875 15.1875 C 87.453125 15.1875 112.203125 39.851562 112.203125 70.230469 C 112.203125 75.417969 111.480469 80.441406 110.128906 85.203125 C 110.128906 85.203125 106.0625 87.5 101.390625 87.773438 C 96.722656 88.046875 92.636719 87.488281 89.78125 86.6875 C 87.296875 85.988281 82.6875 84.085938 80.367188 82.941406 C 76.394531 80.980469 72.683594 78.40625 66.128906 74.597656 C 57.90625 69.820312 48.046875 65.269531 41.894531 63.84375 C 33.917969 61.996094 24.933594 62.941406 21.335938 63.972656 C 14.457031 65.941406 6.394531 68.835938 2.292969 78.085938 C 1.242188 80.460938 1.734375 72.894531 1.734375 70.230469 Z M 1.734375 70.230469 " fill-opacity="1" fill-rule="evenodd"/><path fill="#f4920b" d="M 10.492188 85.445312 C 5.683594 87.941406 5.023438 89.027344 5.109375 87.972656 C 6.398438 72.320312 27.542969 61.769531 51.152344 72.125 C 68 79.515625 84.542969 97.414062 101.785156 92.78125 C 106.703125 91.460938 108.648438 88.390625 108.632812 89.515625 C 108.632812 89.667969 106.917969 93.105469 105.058594 94.929688 C 91.3125 108.394531 67.558594 93.164062 60.605469 89.613281 C 56.5625 87.550781 33.574219 74.132812 10.492188 85.445312 Z M 10.492188 85.445312 " fill-opacity="1" fill-rule="evenodd"/><path fill="#f06c07" d="M 10.679688 100.390625 C 8.925781 97.933594 6.25 92.933594 6.394531 92.332031 C 6.53125 91.757812 12.082031 88.925781 13.683594 88.328125 C 38.164062 79.207031 56.285156 92.292969 70.617188 98.953125 C 91.359375 108.59375 100.457031 102.050781 101.304688 102.015625 C 102.015625 101.992188 98.28125 106.617188 94.34375 108.515625 C 79.96875 115.4375 65.261719 105.808594 52.324219 100.96875 C 28.726562 92.136719 16.117188 102.871094 13.6875 103.945312 C 13.328125 104.101562 13.15625 103.871094 10.679688 100.390625 Z M 10.679688 100.390625 " fill-opacity="1" fill-rule="evenodd"/><path fill="#e95704" d="M 67.324219 123.6875 C 45.527344 128.441406 28.621094 116.953125 25.746094 115.101562 C 23.203125 113.464844 15.332031 107.414062 16.203125 106.707031 C 17.109375 105.972656 22.4375 103.148438 27.898438 102.269531 C 51.492188 98.484375 65.96875 117.871094 87.378906 114.191406 C 87.480469 114.171875 90.351562 113.296875 89.15625 114.25 C 88.832031 114.507812 88.804688 114.460938 84.75 117.019531 C 77.667969 121.492188 68.785156 123.378906 67.324219 123.6875 Z M 67.324219 123.6875 " fill-opacity="1" fill-rule="evenodd"/><g clip-path="url(#807279054f)"><g transform="matrix(1, 0, 0, 1, 120, -0.000000000000003553)"><g clip-path="url(#8ec6ae138d)"><g fill="#373d40" fill-opacity="1"><g transform="translate(1.399242, 96.98191)"><g><path d="M 5.703125 0 L 5.703125 -53.40625 L 52.265625 -53.40625 C 58.347656 -53.40625 62.785156 -51.898438 65.578125 -48.890625 C 68.378906 -45.878906 69.78125 -41.921875 69.78125 -37.015625 L 69.78125 0 L 54.75 0 L 54.75 -35.25 C 54.75 -39.394531 52.675781 -41.46875 48.53125 -41.46875 L 20.734375 -41.46875 L 20.734375 0 Z M 5.703125 0 "/></g></g></g><g fill="#373d40" fill-opacity="1"><g transform="translate(76.046822, 96.98191)"><g><path d="M 33.078125 0.515625 C 23.816406 0.515625 16.59375 -1.78125 11.40625 -6.375 C 6.21875 -10.96875 3.625 -17.722656 3.625 -26.640625 C 3.625 -35.628906 6.21875 -42.421875 11.40625 -47.015625 C 16.59375 -51.617188 23.816406 -53.921875 33.078125 -53.921875 L 59 -53.921875 C 65.082031 -53.921875 69.726562 -52.484375 72.9375 -49.609375 C 76.15625 -46.742188 77.765625 -42.648438 77.765625 -37.328125 C 77.765625 -26.472656 71.507812 -21.046875 59 -21.046875 L 19.796875 -21.046875 C 21.253906 -14.617188 25.679688 -11.40625 33.078125 -11.40625 L 75.0625 -11.40625 L 75.0625 0.515625 Z M 33.078125 -42 C 25.953125 -42 21.5625 -38.988281 19.90625 -32.96875 L 58.265625 -32.96875 C 59.648438 -32.96875 60.738281 -33.382812 61.53125 -34.21875 C 62.332031 -35.050781 62.734375 -36.191406 62.734375 -37.640625 C 62.734375 -40.546875 61.242188 -42 58.265625 -42 Z M 33.078125 -42 "/></g></g></g><g fill="#e95704" fill-opacity="1"><g transform="translate(154.023625, 96.98191)"><g><path d="M 1.03125 0 L 21.15625 -26.640625 L 1.03125 -53.296875 L 18.65625 -53.296875 L 34.109375 -32.65625 L 41.6875 -32.65625 L 57.234375 -53.296875 L 74.765625 -53.296875 L 54.75 -26.640625 L 74.765625 0 L 57.234375 0 L 41.578125 -20.734375 L 34.109375 -20.734375 L 18.65625 0 Z M 1.03125 0 "/></g></g></g><g fill="#373d40" fill-opacity="1"><g transform="translate(229.511413, 96.98191)"><g><path d="M 3.9375 0.515625 L 3.9375 -11.40625 L 54.75 -11.40625 C 57.65625 -11.40625 59.109375 -13.03125 59.109375 -16.28125 C 59.109375 -19.457031 57.65625 -21.046875 54.75 -21.046875 L 21.875 -21.046875 C 15.726562 -21.046875 11.0625 -22.445312 7.875 -25.25 C 4.695312 -28.050781 3.109375 -32.078125 3.109375 -37.328125 C 3.109375 -42.648438 4.710938 -46.742188 7.921875 -49.609375 C 11.140625 -52.484375 15.789062 -53.921875 21.875 -53.921875 L 69.15625 -53.921875 L 69.15625 -42 L 22.609375 -42 C 19.628906 -42 18.140625 -40.546875 18.140625 -37.640625 C 18.140625 -36.191406 18.554688 -35.050781 19.390625 -34.21875 C 20.222656 -33.382812 21.296875 -32.96875 22.609375 -32.96875 L 57.4375 -32.96875 C 62.832031 -32.96875 66.960938 -31.566406 69.828125 -28.765625 C 72.703125 -25.972656 74.140625 -21.914062 74.140625 -16.59375 C 74.140625 -11.195312 72.6875 -6.992188 69.78125 -3.984375 C 66.875 -0.984375 62.757812 0.515625 57.4375 0.515625 Z M 3.9375 0.515625 "/></g></g></g><g fill="#373d40" fill-opacity="1"><g transform="translate(306.439895, 96.98191)"><g><path d="M 22.703125 0 C 16.617188 0 12.175781 -1.519531 9.375 -4.5625 C 6.582031 -7.601562 5.1875 -11.539062 5.1875 -16.375 L 5.1875 -53.40625 L 20.21875 -53.40625 L 20.21875 -18.140625 C 20.21875 -13.992188 22.289062 -11.921875 26.4375 -11.921875 L 48 -11.921875 C 52.15625 -11.921875 54.234375 -13.992188 54.234375 -18.140625 L 54.234375 -53.40625 L 69.265625 -53.40625 L 69.265625 -16.375 C 69.265625 -11.539062 67.863281 -7.601562 65.0625 -4.5625 C 62.257812 -1.519531 57.816406 0 51.734375 0 Z M 22.703125 0 "/></g></g></g><g fill="#373d40" fill-opacity="1"><g transform="translate(380.56909, 96.98191)"><g><path d="M 5.703125 0 L 5.703125 -53.40625 L 52.265625 -53.40625 C 58.347656 -53.40625 62.785156 -51.898438 65.578125 -48.890625 C 68.378906 -45.878906 69.78125 -41.921875 69.78125 -37.015625 L 69.78125 0 L 54.75 0 L 54.75 -35.25 C 54.75 -39.394531 52.675781 -41.46875 48.53125 -41.46875 L 20.734375 -41.46875 L 20.734375 0 Z M 5.703125 0 "/></g></g></g><g fill="#373d40" fill-opacity="1"><g transform="translate(455.216671, 96.98191)"><g><path d="M 6.21875 0 L 6.21875 -14.828125 L 22.8125 -14.828125 L 22.8125 0 Z M 6.21875 0 "/></g></g></g><g fill="#373d40" fill-opacity="1"><g transform="translate(484.142603, 96.98191)"><g><path d="M 19.90625 0 C 14.3125 0 10.023438 -1.414062 7.046875 -4.25 C 4.078125 -7.082031 2.59375 -11.125 2.59375 -16.375 C 2.59375 -21.5625 4.078125 -25.570312 7.046875 -28.40625 C 10.023438 -31.238281 14.3125 -32.65625 19.90625 -32.65625 L 59.71875 -32.65625 L 59.71875 -35.15625 C 59.71875 -39.363281 57.644531 -41.46875 53.5 -41.46875 L 9.546875 -41.46875 L 9.546875 -53.40625 L 57.4375 -53.40625 C 63.726562 -53.40625 68.1875 -51.96875 70.8125 -49.09375 C 73.445312 -46.226562 74.765625 -42.203125 74.765625 -37.015625 L 74.765625 0 Z M 22.609375 -11.921875 L 59.71875 -11.921875 L 59.71875 -20.734375 L 22.609375 -20.734375 C 21.296875 -20.734375 20.273438 -20.335938 19.546875 -19.546875 C 18.816406 -18.753906 18.453125 -17.695312 18.453125 -16.375 C 18.453125 -15.0625 18.816406 -13.988281 19.546875 -13.15625 C 20.273438 -12.332031 21.296875 -11.921875 22.609375 -11.921875 Z M 22.609375 -11.921875 "/></g></g></g><g fill="#373d40" fill-opacity="1"><g transform="translate(564.285081, 96.98191)"><g><path d="M 5.703125 0 L 5.703125 -53.40625 L 20.734375 -53.40625 L 20.734375 0 Z M 5.59375 -62.21875 L 5.59375 -73.921875 L 20.84375 -73.921875 L 20.84375 -62.21875 Z M 5.59375 -62.21875 "/></g></g></g></g></g></g></g></g></svg>