<svg xmlns="http://www.w3.org/2000/svg" xmlns:xlink="http://www.w3.org/1999/xlink" width="960" zoomAndPan="magnify" viewBox="0 0 720 359.999987" height="480" preserveAspectRatio="xMidYMid meet" version="1.0"><defs><g/><clipPath id="322d2c3315"><rect x="0" width="693" y="0" height="288"/></clipPath></defs><g transform="matrix(1, 0, 0, 1, 13, 36)"><g clip-path="url(#322d2c3315)"><g fill="#373d40" fill-opacity="1"><g transform="translate(1.552439, 254.119231)"><g><path d="M 6.6875 0 L 6.6875 -62.59375 L 61.265625 -62.59375 C 68.390625 -62.59375 73.59375 -60.828125 76.875 -57.296875 C 80.15625 -53.773438 81.796875 -49.140625 81.796875 -43.390625 L 81.796875 0 L 64.171875 0 L 64.171875 -41.328125 C 64.171875 -46.191406 61.742188 -48.625 56.890625 -48.625 L 24.3125 -48.625 L 24.3125 0 Z M 6.6875 0 "/></g></g></g><g fill="#373d40" fill-opacity="1"><g transform="translate(89.065361, 254.119231)"><g><path d="M 38.78125 0.609375 C 27.914062 0.609375 19.441406 -2.082031 13.359375 -7.46875 C 7.285156 -12.863281 4.25 -20.785156 4.25 -31.234375 C 4.25 -41.765625 7.285156 -49.722656 13.359375 -55.109375 C 19.441406 -60.503906 27.914062 -63.203125 38.78125 -63.203125 L 69.15625 -63.203125 C 76.289062 -63.203125 81.738281 -61.519531 85.5 -58.15625 C 89.269531 -54.789062 91.15625 -49.988281 91.15625 -43.75 C 91.15625 -31.03125 83.820312 -24.671875 69.15625 -24.671875 L 23.21875 -24.671875 C 24.914062 -17.140625 30.101562 -13.375 38.78125 -13.375 L 88 -13.375 L 88 0.609375 Z M 38.78125 -49.21875 C 30.425781 -49.21875 25.28125 -45.695312 23.34375 -38.65625 L 68.3125 -38.65625 C 69.925781 -38.65625 71.195312 -39.140625 72.125 -40.109375 C 73.0625 -41.078125 73.53125 -42.414062 73.53125 -44.125 C 73.53125 -47.519531 71.789062 -49.21875 68.3125 -49.21875 Z M 38.78125 -49.21875 "/></g></g></g><g fill="#e95704" fill-opacity="1"><g transform="translate(180.481289, 254.119231)"><g><path d="M 1.21875 0 L 24.796875 -31.234375 L 1.21875 -62.46875 L 21.875 -62.46875 L 39.984375 -38.28125 L 48.859375 -38.28125 L 67.09375 -62.46875 L 87.640625 -62.46875 L 64.171875 -31.234375 L 87.640625 0 L 67.09375 0 L 48.734375 -24.3125 L 39.984375 -24.3125 L 21.875 0 Z M 1.21875 0 "/></g></g></g><g fill="#373d40" fill-opacity="1"><g transform="translate(268.979226, 254.119231)"><g><path d="M 4.625 0.609375 L 4.625 -13.375 L 64.171875 -13.375 C 67.578125 -13.375 69.28125 -15.273438 69.28125 -19.078125 C 69.28125 -22.804688 67.578125 -24.671875 64.171875 -24.671875 L 25.640625 -24.671875 C 18.429688 -24.671875 12.960938 -26.3125 9.234375 -29.59375 C 5.503906 -32.875 3.640625 -37.59375 3.640625 -43.75 C 3.640625 -49.988281 5.523438 -54.789062 9.296875 -58.15625 C 13.066406 -61.519531 18.515625 -63.203125 25.640625 -63.203125 L 81.078125 -63.203125 L 81.078125 -49.21875 L 26.5 -49.21875 C 23.007812 -49.21875 21.265625 -47.519531 21.265625 -44.125 C 21.265625 -42.414062 21.75 -41.078125 22.71875 -40.109375 C 23.695312 -39.140625 24.957031 -38.65625 26.5 -38.65625 L 67.34375 -38.65625 C 73.65625 -38.65625 78.492188 -37.015625 81.859375 -33.734375 C 85.222656 -30.453125 86.90625 -25.691406 86.90625 -19.453125 C 86.90625 -13.128906 85.203125 -8.203125 81.796875 -4.671875 C 78.398438 -1.148438 73.582031 0.609375 67.34375 0.609375 Z M 4.625 0.609375 "/></g></g></g><g fill="#373d40" fill-opacity="1"><g transform="translate(359.166157, 254.119231)"><g><path d="M 26.625 0 C 19.488281 0 14.28125 -1.78125 11 -5.34375 C 7.71875 -8.914062 6.078125 -13.535156 6.078125 -19.203125 L 6.078125 -62.59375 L 23.703125 -62.59375 L 23.703125 -21.265625 C 23.703125 -16.410156 26.132812 -13.984375 31 -13.984375 L 56.28125 -13.984375 C 61.132812 -13.984375 63.5625 -16.410156 63.5625 -21.265625 L 63.5625 -62.59375 L 81.1875 -62.59375 L 81.1875 -19.203125 C 81.1875 -13.535156 79.546875 -8.914062 76.265625 -5.34375 C 72.984375 -1.78125 67.78125 0 60.65625 0 Z M 26.625 0 "/></g></g></g><g fill="#373d40" fill-opacity="1"><g transform="translate(446.071352, 254.119231)"><g><path d="M 6.6875 0 L 6.6875 -62.59375 L 61.265625 -62.59375 C 68.390625 -62.59375 73.59375 -60.828125 76.875 -57.296875 C 80.15625 -53.773438 81.796875 -49.140625 81.796875 -43.390625 L 81.796875 0 L 64.171875 0 L 64.171875 -41.328125 C 64.171875 -46.191406 61.742188 -48.625 56.890625 -48.625 L 24.3125 -48.625 L 24.3125 0 Z M 6.6875 0 "/></g></g></g><g fill="#373d40" fill-opacity="1"><g transform="translate(533.584273, 254.119231)"><g><path d="M 7.296875 0 L 7.296875 -17.375 L 26.734375 -17.375 L 26.734375 0 Z M 7.296875 0 "/></g></g></g><g fill="#373d40" fill-opacity="1"><g transform="translate(567.495525, 254.119231)"><g><path d="M 23.34375 0 C 16.769531 0 11.738281 -1.660156 8.25 -4.984375 C 4.769531 -8.304688 3.03125 -13.046875 3.03125 -19.203125 C 3.03125 -25.285156 4.769531 -29.984375 8.25 -33.296875 C 11.738281 -36.617188 16.769531 -38.28125 23.34375 -38.28125 L 70.015625 -38.28125 L 70.015625 -41.203125 C 70.015625 -46.148438 67.582031 -48.625 62.71875 -48.625 L 11.1875 -48.625 L 11.1875 -62.59375 L 67.34375 -62.59375 C 74.707031 -62.59375 79.929688 -60.910156 83.015625 -57.546875 C 86.097656 -54.191406 87.640625 -49.472656 87.640625 -43.390625 L 87.640625 0 Z M 26.5 -13.984375 L 70.015625 -13.984375 L 70.015625 -24.3125 L 26.5 -24.3125 C 24.957031 -24.3125 23.757812 -23.84375 22.90625 -22.90625 C 22.0625 -21.976562 21.640625 -20.742188 21.640625 -19.203125 C 21.640625 -17.660156 22.0625 -16.40625 22.90625 -15.4375 C 23.757812 -14.46875 24.957031 -13.984375 26.5 -13.984375 Z M 26.5 -13.984375 "/></g></g></g><g fill="#373d40" fill-opacity="1"><g transform="translate(661.450378, 254.119231)"><g><path d="M 6.6875 0 L 6.6875 -62.59375 L 24.3125 -62.59375 L 24.3125 0 Z M 6.5625 -72.921875 L 6.5625 -86.65625 L 24.421875 -86.65625 L 24.421875 -72.921875 Z M 6.5625 -72.921875 "/></g></g></g><path fill="#f6b707" d="M 140.128906 89.304688 C 140.128906 42.125 178.476562 3.820312 225.707031 3.820312 C 272.9375 3.820312 311.285156 42.125 311.285156 89.304688 C 311.285156 97.367188 310.164062 105.167969 308.074219 112.5625 C 308.074219 112.5625 301.769531 116.132812 294.535156 116.554688 C 287.304688 116.980469 280.972656 116.113281 276.546875 114.867188 C 272.695312 113.785156 265.554688 110.828125 261.957031 109.046875 C 255.808594 106.003906 250.058594 102.007812 239.898438 96.09375 C 227.160156 88.675781 211.886719 81.605469 202.351562 79.390625 C 189.996094 76.519531 176.074219 77.988281 170.496094 79.589844 C 159.84375 82.648438 147.347656 87.140625 140.996094 101.511719 C 139.371094 105.195312 140.128906 93.449219 140.128906 89.304688 Z M 140.128906 89.304688 " fill-opacity="1" fill-rule="evenodd"/><path fill="#f4920b" d="M 153.699219 112.941406 C 146.25 116.8125 145.222656 118.5 145.359375 116.867188 C 147.355469 92.554688 180.117188 76.164062 216.695312 92.25 C 242.800781 103.730469 268.433594 131.527344 295.144531 124.335938 C 302.765625 122.28125 305.777344 117.511719 305.757812 119.261719 C 305.753906 119.496094 303.097656 124.839844 300.214844 127.667969 C 278.917969 148.582031 242.113281 124.925781 231.339844 119.414062 C 225.078125 116.207031 189.464844 95.367188 153.699219 112.941406 Z M 153.699219 112.941406 " fill-opacity="1" fill-rule="evenodd"/><path fill="#f06c07" d="M 153.988281 136.152344 C 151.273438 132.332031 147.128906 124.566406 147.351562 123.636719 C 147.5625 122.746094 156.160156 118.34375 158.648438 117.417969 C 196.574219 103.253906 224.648438 123.574219 246.855469 133.917969 C 278.996094 148.890625 293.089844 138.726562 294.398438 138.679688 C 295.503906 138.636719 289.714844 145.820312 283.613281 148.769531 C 261.34375 159.519531 238.558594 144.566406 218.511719 137.046875 C 181.949219 123.332031 162.414062 140.007812 158.648438 141.671875 C 158.09375 141.917969 157.828125 141.554688 153.988281 136.152344 Z M 153.988281 136.152344 " fill-opacity="1" fill-rule="evenodd"/><path fill="#e95704" d="M 241.75 172.335938 C 207.980469 179.714844 181.785156 161.878906 177.332031 159 C 173.394531 156.457031 161.195312 147.058594 162.546875 145.964844 C 163.953125 144.820312 172.207031 140.433594 180.671875 139.070312 C 217.21875 133.191406 239.652344 163.300781 272.824219 157.582031 C 272.984375 157.554688 277.429688 156.199219 275.582031 157.675781 C 275.074219 158.082031 275.03125 158.007812 268.75 161.980469 C 257.777344 168.921875 244.011719 171.851562 241.75 172.335938 Z M 241.75 172.335938 " fill-opacity="1" fill-rule="evenodd"/></g></g></svg>