<?xml version="1.0" encoding="UTF-8" standalone="no"?>
<!DOCTYPE svg PUBLIC "-//W3C//DTD SVG 1.1//EN" "http://www.w3.org/Graphics/SVG/1.1/DTD/svg11.dtd">
<svg width="100%" height="100%" viewBox="0 0 2700 2700" version="1.1" xmlns="http://www.w3.org/2000/svg" xmlns:xlink="http://www.w3.org/1999/xlink" xml:space="preserve" xmlns:serif="http://www.serif.com/" style="fill-rule:evenodd;clip-rule:evenodd;stroke-linejoin:round;stroke-miterlimit:2;">
    <g transform="matrix(2.121262,0,0,2.121262,-3150.029161,-1811.456969)">
        <g transform="matrix(1.182468,0,0,1.182468,-778.336546,249.576753)">
            <path d="M1951.839,1051.321C1951.839,774.84 2176.306,550.373 2452.787,550.373C2729.268,550.373 2953.736,774.84 2953.736,1051.321C2953.736,1098.553 2947.185,1144.267 2934.943,1187.603C2934.943,1187.603 2898.039,1208.528 2855.694,1211.006C2813.354,1213.484 2776.292,1208.399 2750.399,1201.111C2727.849,1194.764 2686.047,1177.439 2664.988,1167.006C2628.982,1149.167 2595.33,1125.755 2535.867,1091.093C2461.292,1047.621 2371.879,1006.193 2316.077,993.211C2243.746,976.384 2162.249,984.986 2129.602,994.374C2067.231,1012.309 1994.088,1038.632 1956.915,1122.841C1947.385,1144.431 1951.839,1075.601 1951.839,1051.321Z" style="fill:rgb(246,183,7);"/>
        </g>
        <g id="ChatGPT-Image-Apr-22--2026--03_48_58-PM.png" serif:id="ChatGPT Image Apr 22, 2026, 03_48_58 PM.png" transform="matrix(2.351226,0,0,2.351226,1003.904366,346.002369)">
            <g transform="matrix(1.144689,0,0,1.182468,-112.631383,-43.022442)">
                <path d="M328.631,507.742C309.473,517.395 306.835,521.599 307.18,517.53C312.318,456.939 396.574,416.087 490.645,456.176C557.784,484.787 623.708,554.066 692.406,536.14C712.002,531.026 719.757,519.134 719.7,523.5C719.692,524.082 712.861,537.396 705.449,544.448C650.678,596.57 556.024,537.618 528.314,523.874C512.207,515.885 420.615,463.946 328.631,507.742Z" style="fill:rgb(244,146,11);"/>
            </g>
            <g transform="matrix(1.169325,0,0,1.182468,-123.72781,-43.022442)">
                <path d="M331.924,565.59C325.094,556.076 314.657,536.72 315.217,534.4C315.753,532.18 337.398,521.213 343.655,518.9C439.145,483.6 509.826,534.243 565.732,560.026C646.648,597.343 682.135,572.012 685.434,571.888C688.214,571.785 673.641,589.693 658.275,597.037C602.212,623.83 544.842,586.565 494.377,567.824C402.324,533.639 353.143,575.2 343.659,579.349C342.262,579.96 341.595,579.06 331.924,565.59Z" style="fill:rgb(240,108,7);"/>
            </g>
            <g transform="matrix(1.175182,0,0,1.180634,-130.140423,-41.975344)">
                <path d="M555.584,655.902C470.982,674.329 405.364,629.8 394.205,622.619C384.342,616.272 353.787,592.81 357.166,590.076C360.691,587.223 381.369,576.27 402.571,572.871C494.131,558.196 550.321,633.35 633.429,619.081C633.827,619.012 644.962,615.625 640.329,619.315C639.065,620.321 638.952,620.137 623.222,630.055C595.733,647.388 561.251,654.7 555.584,655.902Z" style="fill:rgb(233,87,4);"/>
            </g>
        </g>
    </g>
</svg>
