<?xml version="1.0" encoding="utf-8"?>
<!-- Generator: Adobe Illustrator 28.3.0, SVG Export Plug-In . SVG Version: 6.00 Build 0)  -->
<svg version="1.1" id="Layer_1" xmlns="http://www.w3.org/2000/svg" xmlns:xlink="http://www.w3.org/1999/xlink" x="0px" y="0px"
	 viewBox="0 0 401.98 119.47" style="enable-background:new 0 0 401.98 119.47;" xml:space="preserve">
<style type="text/css">
	.st0{fill:#3DAE2B;}
	.st1{fill:#FF8300;}
	.st2{fill:#BCCF31;}
	.st3{fill:#9E28B5;}
	.st4{fill:#EF4136;}
	.st5{fill:#00A7E1;}
	.st6{fill:#472E81;}
</style>
<g>
	<g>
		<polygon class="st0" points="18.05,35.56 7.54,53.76 18.05,71.97 28.56,53.76 		"/>
		<polygon class="st0" points="28.56,90.17 42.58,114.45 53.09,96.25 39.07,71.97 		"/>
		<polygon class="st1" points="46.08,59.83 35.57,41.63 29.94,51.38 40.45,69.59 		"/>
		<polygon class="st1" points="63.6,29.49 53.09,11.28 47.46,21.03 57.97,39.24 		"/>
		
			<rect x="51.33" y="22.01" transform="matrix(0.2249 -0.9744 0.9744 0.2249 8.1035 75.2299)" class="st1" width="0" height="21.02"/>
		<polygon class="st1" points="14.55,78.04 25.06,96.25 28.56,90.17 18.05,71.97 		"/>
		<polygon class="st2" points="28.56,53.76 18.05,71.97 28.56,90.17 39.07,71.97 		"/>
		<polygon class="st3" points="46.08,59.83 49.58,65.9 60.1,47.69 56.59,41.63 		"/>
		<polygon class="st3" points="39.07,11.28 28.56,29.49 35.57,41.63 46.08,23.42 		"/>
		<polygon class="st3" points="60.09,84.1 67.1,96.24 77.61,78.04 70.61,65.9 		"/>
		<polygon class="st4" points="56.59,41.63 46.08,23.42 35.57,41.63 46.08,59.83 		"/>
		<polygon class="st5" points="60.1,47.69 70.61,65.9 60.1,47.69 		"/>
		<polygon class="st5" points="91.63,29.49 81.12,11.28 61.47,45.31 71.98,63.51 		"/>
		<polygon class="st5" points="43.95,75.66 54.46,93.86 60.09,84.11 49.58,65.9 		"/>
		<polygon class="st6" points="60.1,47.69 49.58,65.9 60.09,84.1 70.61,65.9 		"/>
	</g>
	<g>
		<g>
			<path d="M110.31,63.31c-5.49,0-8.74-4.05-8.74-8.94v-0.05c0-4.69,3.4-8.99,8.59-8.99c2.83,0,4.62,0.84,6.35,2.28l-0.84,0.97
				c-1.36-1.19-2.95-2.09-5.58-2.09c-4.22,0-7.17,3.58-7.17,7.77v0.05c0,4.49,2.81,7.84,7.45,7.84c2.21,0,4.27-0.92,5.53-1.99v-4.99
				h-5.81V54h7.05v6.7C115.57,62.1,113.14,63.31,110.31,63.31"/>
			<path d="M134.02,50.63c0-2.33-1.84-3.8-4.99-3.8h-5.93v7.82h5.86c2.91,0,5.07-1.46,5.07-3.97V50.63z M134.31,63.01l-5.54-7.2
				h-5.68v7.2h-1.29V45.64h7.3c3.75,0,6.21,2.04,6.21,4.94v0.05c0,2.9-2.16,4.57-5.09,4.96l5.73,7.42H134.31z"/>
		</g>
		<polygon points="139.75,63.01 139.75,45.64 152.11,45.64 152.11,46.83 141.04,46.83 141.04,53.65 150.99,53.65 150.99,54.85 
			141.04,54.85 141.04,61.82 152.23,61.82 152.23,63.01 		"/>
		<path d="M163.58,46.93l-4.59,10.05h9.16L163.58,46.93z M170.9,63.01l-2.21-4.87h-10.25l-2.21,4.87h-1.34l8.09-17.5h1.24l8.09,17.5
			H170.9z"/>
		<polygon points="179.86,46.83 179.86,63.01 178.57,63.01 178.57,46.83 172.51,46.83 172.51,45.64 185.92,45.64 185.92,46.83 		"/>
		<polygon points="189.84,63.01 189.84,45.64 202.2,45.64 202.2,46.83 191.13,46.83 191.13,53.65 201.08,53.65 201.08,54.85 
			191.13,54.85 191.13,61.82 202.32,61.82 202.32,63.01 		"/>
		<g>
			<path d="M218.68,50.63c0-2.33-1.84-3.8-4.99-3.8h-5.93v7.82h5.86c2.9,0,5.06-1.46,5.06-3.97V50.63z M218.98,63.01l-5.54-7.2
				h-5.68v7.2h-1.29V45.64h7.3c3.75,0,6.21,2.04,6.21,4.94v0.05c0,2.9-2.16,4.57-5.09,4.96l5.73,7.42H218.98z"/>
		</g>
		<polygon points="239.16,63.14 238.02,63.14 230.37,45.64 231.81,45.64 238.61,61.62 245.44,45.64 246.8,45.64 		"/>
		<path d="M255.19,46.93l-4.59,10.05h9.16L255.19,46.93z M262.51,63.01l-2.21-4.87h-10.25l-2.21,4.87h-1.34l8.09-17.5h1.24
			l8.09,17.5H262.51z"/>
		<polygon points="281.08,63.01 268.84,47.57 268.84,63.01 267.6,63.01 267.6,45.64 268.82,45.64 280.81,60.75 280.81,45.64 
			282.05,45.64 282.05,63.01 		"/>
		<g>
			<path d="M295.08,63.31c-4.96,0-8.64-3.95-8.64-8.94v-0.05c0-4.92,3.67-8.99,8.69-8.99c3.11,0,4.96,1.14,6.75,2.78l-0.92,0.94
				c-1.52-1.46-3.25-2.56-5.86-2.56c-4.17,0-7.32,3.4-7.32,7.77v0.05c0,4.39,3.21,7.82,7.35,7.82c2.51,0,4.22-0.97,5.98-2.71
				l0.87,0.85C300.15,62.1,298.16,63.31,295.08,63.31"/>
			<path d="M320.4,54.32c0-4.3-3.13-7.82-7.42-7.82c-4.3,0-7.37,3.48-7.37,7.77v0.05c0,4.29,3.13,7.82,7.42,7.82
				c4.3,0,7.37-3.47,7.37-7.77V54.32z M312.98,63.31c-5.26,0-8.71-4.2-8.71-8.94v-0.05c0-4.74,3.5-8.99,8.76-8.99
				s8.71,4.19,8.71,8.94c0.02,0.02,0.02,0.02,0,0.05C321.74,59.07,318.25,63.31,312.98,63.31"/>
			<path d="M332.99,63.29c-4.17,0-7.12-2.63-7.12-7.5V45.64h1.29v10.03c0,4.1,2.21,6.45,5.89,6.45c3.52,0,5.79-2.13,5.79-6.33V45.64
				h1.29v10C340.11,60.63,337.21,63.29,332.99,63.29"/>
		</g>
		<polygon points="352.3,63.14 351.16,63.14 343.51,45.64 344.95,45.64 351.75,61.62 358.58,45.64 359.94,45.64 		"/>
		<polygon points="363.62,63.01 363.62,45.64 375.98,45.64 375.98,46.83 364.91,46.83 364.91,53.65 374.86,53.65 374.86,54.85 
			364.91,54.85 364.91,61.82 376.1,61.82 376.1,63.01 		"/>
		<g>
			<path d="M392.46,50.63c0-2.33-1.84-3.8-4.99-3.8h-5.93v7.82h5.86c2.9,0,5.07-1.46,5.07-3.97V50.63z M392.76,63.01l-5.54-7.2
				h-5.69v7.2h-1.29V45.64h7.3c3.75,0,6.21,2.04,6.21,4.94v0.05c0,2.9-2.16,4.57-5.09,4.96l5.73,7.42H392.76z"/>
			<path class="st5" d="M110.15,83.14h-4.61v3.99h4.74c1.76,0,2.82-0.62,2.82-1.97v-0.05C113.1,83.89,112.2,83.14,110.15,83.14
				 M112.09,77.86c0-1.19-0.93-1.86-2.62-1.86h-3.93v3.83h3.67c1.76,0,2.87-0.57,2.87-1.92V77.86z M101.66,72.5h8.41
				c2.07,0,3.7,0.57,4.74,1.61c0.83,0.83,1.24,1.84,1.24,3.08v0.05c0,2.04-1.09,3.18-2.38,3.91c2.1,0.8,3.39,2.02,3.39,4.45v0.05
				c0,3.31-2.69,4.97-6.78,4.97h-8.62V72.5z"/>
			<path class="st5" d="M134.64,81.61v-0.05c0-3.1-2.28-5.69-5.49-5.69c-3.21,0-5.43,2.54-5.43,5.64v0.05
				c0,3.11,2.28,5.69,5.49,5.69C132.41,87.25,134.64,84.72,134.64,81.61 M119.55,81.61v-0.05c0-5.15,4.06-9.37,9.65-9.37
				c5.59,0,9.6,4.17,9.6,9.32v0.05c0,5.15-4.06,9.37-9.66,9.37C123.56,90.93,119.55,86.76,119.55,81.61"/>
		</g>
		<path class="st5" d="M151.59,83.04l-2.41-5.88l-2.41,5.88H151.59z M147.39,72.37h3.67l7.77,18.24h-4.17l-1.66-4.06h-7.66
			l-1.66,4.06h-4.07L147.39,72.37z"/>
		<g>
			<path class="st5" d="M169.65,81.3c1.94,0,3.05-1.03,3.05-2.56v-0.05c0-1.71-1.19-2.59-3.13-2.59h-3.96v5.2H169.65z M161.63,72.5
				h8.28c2.3,0,4.09,0.65,5.28,1.84c1.01,1.01,1.55,2.43,1.55,4.14v0.05c0,2.92-1.58,4.76-3.88,5.62l4.43,6.47h-4.66l-3.88-5.8
				h-3.13v5.8h-3.99V72.5z"/>
			<path class="st5" d="M184.32,76.1v10.92h3.08c3.26,0,5.46-2.2,5.46-5.41v-0.05c0-3.21-2.2-5.46-5.46-5.46H184.32z M180.34,72.5
				h7.06c5.7,0,9.63,3.91,9.63,9.01v0.05c0,5.1-3.93,9.06-9.63,9.06h-7.06V72.5z"/>
			<path class="st5" d="M222.63,81.61v-0.05c0-3.1-2.28-5.69-5.49-5.69c-3.21,0-5.44,2.54-5.44,5.64v0.05
				c0,3.11,2.28,5.69,5.49,5.69C220.4,87.25,222.63,84.72,222.63,81.61 M207.53,81.61v-0.05c0-5.15,4.06-9.37,9.65-9.37
				c5.59,0,9.61,4.17,9.61,9.32v0.05c0,5.15-4.06,9.37-9.66,9.37S207.53,86.76,207.53,81.61"/>
		</g>
		<polygon class="st5" points="230.34,72.5 244.13,72.5 244.13,76.12 234.32,76.12 234.32,79.98 242.96,79.98 242.96,83.6 
			234.32,83.6 234.32,90.62 230.34,90.62 		"/>
		<polygon class="st5" points="259.29,76.18 253.78,76.18 253.78,72.5 268.79,72.5 268.79,76.18 263.28,76.18 263.28,90.62 
			259.29,90.62 		"/>
		<g>
			<path class="st5" d="M279.87,81.3c1.94,0,3.05-1.03,3.05-2.56v-0.05c0-1.71-1.19-2.59-3.13-2.59h-3.96v5.2H279.87z M271.84,72.5
				h8.28c2.3,0,4.09,0.65,5.28,1.84c1.01,1.01,1.55,2.43,1.55,4.14v0.05c0,2.92-1.58,4.76-3.88,5.62l4.42,6.47h-4.66l-3.88-5.8
				h-3.13v5.8h-3.99V72.5z"/>
		</g>
		<path class="st5" d="M300.96,83.04l-2.41-5.88l-2.41,5.88H300.96z M296.77,72.37h3.68l7.76,18.24h-4.17l-1.66-4.06h-7.66
			l-1.66,4.06H289L296.77,72.37z"/>
		<g>
			<path class="st5" d="M314.99,76.1v10.92h3.08c3.26,0,5.46-2.2,5.46-5.41v-0.05c0-3.21-2.2-5.46-5.46-5.46H314.99z M311,72.5h7.06
				c5.69,0,9.62,3.91,9.62,9.01v0.05c0,5.1-3.93,9.06-9.62,9.06H311V72.5z"/>
		</g>
		<polygon class="st5" points="331.24,72.5 344.9,72.5 344.9,76.05 335.2,76.05 335.2,79.72 343.74,79.72 343.74,83.27 335.2,83.27 
			335.2,87.07 345.03,87.07 345.03,90.62 331.24,90.62 		"/>
	</g>
</g>
</svg>
